# xmcd
#
# Track frame offsets: 
#        182
#        12560
#        25317
#        36645
#        47947
#        57975
#        68675
#        82047
#        93785
#        103187
#        117877
#        130320
#
# Disc length: 1897 seconds
#
# Revision: 2
# Processed by: cddbd v1.4PL0 Copyright (c) Steve Scherf et al.
# Submitted via: ExactAudioCopy v0.95a1
#
DISCID=a807670c
DTITLE=Merle Haggard - Okie From Muskogee
DYEAR=1989
DGENRE=Country
TTITLE0=Okie From Muskogee
TTITLE1=Sing Me Back Home
TTITLE2=Drink Up and Be Somebody
TTITLE3=The Sidewalks of Chicago
TTITLE4=Mama Tried
TTITLE5=Today I Started Loving You Again
TTITLE6=I'm A Lonesome Fugitive
TTITLE7=Sing A Sad Song
TTITLE8=Where Does The Good Times Go
TTITLE9=Green Green Grass of Home
TTITLE10=I Never Go Around Mirrors
TTITLE11=San Antonio Rose
EXTD=
EXTT0=
EXTT1=
EXTT2=
EXTT3=
EXTT4=
EXTT5=
EXTT6=
EXTT7=
EXTT8=
EXTT9=
EXTT10=
EXTT11=
PLAYORDER=
